<svg xmlns="http://www.w3.org/2000/svg" width="32" height="32" fill="none">
    <path fill="#34a853"
          d="M16.002 12.45 12.54 6.344c.115-.117.247-.194.38-.245-1.021.336-1.49 1.482-1.49 1.482L5.11 18.734c-.089.35-.114.666-.103.944h6.901z"/>
    <path fill="#fbbc05" d="m16.002 12.45 4.095 7.228h6.9a3.276 3.276 0 0 0-.102-.944L20.572 7.58s-.47-1.146-1.488-1.482c.13.051.264.128.379.245z"/>
    <path fill="#188038"
          d="m16.002 12.451 3.46-6.107a1.08 1.08 0 0 0-.379-.246 1.87 1.87 0 0 0-.488-.09h-5.187c-.174.007-.337.04-.488.09a1.08 1.08 0 0 0-.379.246z"/>
    <path fill="#4285f4"
          d="m11.908 19.678-3.421 6.039s-.114-.056-.268-.17c.485.374.957.453.957.453h13.437c.742 0 .896-.283.896-.283l.006-.004-3.419-6.035z"/>
    <path fill="#1967d2"
          d="M11.909 19.678H5.008c.034.82.39 1.3.39 1.3l.26.45c.018.027.03.042.03.042l.564.991 1.268 2.207c.037.089.08.17.126.249.017.026.033.055.052.08l.015.023c.156.221.332.392.507.527.155.116.268.17.268.17z"/>
    <path fill="#ea4335"
          d="M20.097 19.678h6.9c-.034.82-.39 1.3-.39 1.3l-.26.45c-.018.027-.03.042-.03.042l-.564.991-1.267 2.207c-.038.089-.08.17-.126.249-.018.026-.034.055-.052.08l-.015.023a2.433 2.433 0 0 1-.508.527c-.154.116-.268.17-.268.17z"/>
</svg>
